<svg width="138" height="78" viewBox="0 0 138 78" fill="none" xmlns="http://www.w3.org/2000/svg">
<path d="M14.3115 55.6454C11.7509 55.6454 9.29712 55.3101 6.94998 54.6394C4.60283 53.9384 2.71293 53.0391 1.28026 51.9418L3.79505 46.3635C5.16676 47.3389 6.78232 48.1467 8.64175 48.7868C10.5317 49.3965 12.4368 49.7013 14.3572 49.7013C15.8203 49.7013 16.9939 49.5641 17.8779 49.2898C18.7924 48.985 19.463 48.5735 19.8897 48.0553C20.3165 47.5371 20.5299 46.9427 20.5299 46.272C20.5299 45.4185 20.1946 44.7479 19.5239 44.2602C18.8533 43.742 17.9693 43.3305 16.872 43.0257C15.7746 42.6904 14.5553 42.3855 13.2141 42.1112C11.9034 41.8064 10.5774 41.4406 9.23615 41.0138C7.92541 40.5871 6.72136 40.0384 5.62399 39.3678C4.52663 38.6972 3.6274 37.8132 2.92631 36.7158C2.25569 35.6185 1.92039 34.2163 1.92039 32.5093C1.92039 30.6803 2.40811 29.019 3.38354 27.5254C4.38946 26.0013 5.88309 24.7972 7.86445 23.9132C9.87628 22.9988 12.3911 22.5415 15.4088 22.5415C17.4207 22.5415 19.402 22.7854 21.3529 23.2731C23.3038 23.7303 25.026 24.4314 26.5196 25.3764L24.2335 31.0004C22.7398 30.1469 21.2462 29.522 19.7526 29.1257C18.2589 28.699 16.7958 28.4856 15.3631 28.4856C13.9304 28.4856 12.7569 28.6532 11.8424 28.9885C10.9279 29.3239 10.2726 29.7658 9.87628 30.3145C9.48001 30.8327 9.28187 31.4424 9.28187 32.1435C9.28187 32.9665 9.61718 33.6371 10.2878 34.1553C10.9584 34.643 11.8424 35.0393 12.9398 35.3441C14.0371 35.6489 15.2412 35.9538 16.5519 36.2586C17.8931 36.5634 19.2191 36.914 20.5299 37.3102C21.8711 37.7065 23.0904 38.2399 24.1877 38.9106C25.2851 39.5812 26.1691 40.4652 26.8397 41.5625C27.5408 42.6599 27.8913 44.0468 27.8913 45.7234C27.8913 47.5218 27.3884 49.1679 26.3825 50.6615C25.3766 52.1551 23.8677 53.3592 21.8558 54.2737C19.8745 55.1881 17.3597 55.6454 14.3115 55.6454ZM42.6581 55.4625C40.6158 55.4625 38.7868 55.0662 37.1713 54.2737C35.5862 53.4811 34.3517 52.2771 33.4677 50.6615C32.5837 49.0155 32.1417 46.9274 32.1417 44.3974V30.4974H39.2746V43.3457C39.2746 45.3881 39.7013 46.8969 40.5548 47.8724C41.4388 48.8173 42.6733 49.2898 44.2584 49.2898C45.3558 49.2898 46.3312 49.0612 47.1847 48.6039C48.0382 48.1162 48.7088 47.3846 49.1966 46.4092C49.6843 45.4033 49.9281 44.1535 49.9281 42.6599V30.4974H57.061V55.0967H50.2939V48.3296L51.5285 50.2957C50.7054 52.0027 49.4861 53.2982 47.8706 54.1822C46.2855 55.0357 44.548 55.4625 42.6581 55.4625ZM78.0383 55.4625C75.874 55.4625 74.0146 55.0052 72.46 54.0908C70.9054 53.1763 69.7166 51.7893 68.8936 49.9299C68.0706 48.04 67.659 45.6624 67.659 42.7971C67.659 39.9012 68.0858 37.5236 68.9393 35.6642C69.8233 33.8048 71.0426 32.4178 72.5972 31.5033C74.1518 30.5889 75.9655 30.1316 78.0383 30.1316C80.3549 30.1316 82.4277 30.6498 84.2567 31.6862C86.1161 32.7226 87.5793 34.1858 88.6461 36.0757C89.7435 37.9656 90.2922 40.2061 90.2922 42.7971C90.2922 45.3576 89.7435 47.5828 88.6461 49.4727C87.5793 51.3626 86.1161 52.841 84.2567 53.9079C82.4277 54.9443 80.3549 55.4625 78.0383 55.4625ZM63.4982 55.0967V21.1698H70.6311V35.4813L70.1738 42.7513L70.311 50.0671V55.0967H63.4982ZM76.8037 49.6099C77.9926 49.6099 79.0442 49.3355 79.9587 48.7868C80.9036 48.2382 81.6504 47.4609 82.1991 46.4549C82.7783 45.4185 83.0679 44.1992 83.0679 42.7971C83.0679 41.3644 82.7783 40.1451 82.1991 39.1392C81.6504 38.1333 80.9036 37.356 79.9587 36.8073C79.0442 36.2586 77.9926 35.9842 76.8037 35.9842C75.6149 35.9842 74.5481 36.2586 73.6031 36.8073C72.6582 37.356 71.9113 38.1333 71.3627 39.1392C70.814 40.1451 70.5396 41.3644 70.5396 42.7971C70.5396 44.1992 70.814 45.4185 71.3627 46.4549C71.9113 47.4609 72.6582 48.2382 73.6031 48.7868C74.5481 49.3355 75.6149 49.6099 76.8037 49.6099Z" fill="#07264E"/>
<line x1="97.3878" y1="68.1263" x2="128.632" y2="3.35129" stroke="#0647EE" stroke-width="12.1929"/>
<line x1="132.92" y1="73.9052" x2="93.2229" y2="13.9375" stroke="#0647EE" stroke-width="12.1929"/>
</svg>
