<svg width="129" height="72" viewBox="0 0 129 72" fill="none" xmlns="http://www.w3.org/2000/svg">
<path d="M13.3778 51.2116C10.9843 51.2116 8.69059 50.8982 6.49658 50.2713C4.30256 49.616 2.53594 48.7754 1.19674 47.7496L3.54747 42.5353C4.82969 43.4471 6.33986 44.2022 8.07798 44.8005C9.84459 45.3704 11.6255 45.6553 13.4206 45.6553C14.7883 45.6553 15.8853 45.5271 16.7116 45.2707C17.5664 44.9857 18.1933 44.6011 18.5922 44.1167C18.9911 43.6323 19.1905 43.0767 19.1905 42.4498C19.1905 41.652 18.8771 41.0251 18.2502 40.5692C17.6234 40.0848 16.7971 39.7001 15.7713 39.4152C14.7455 39.1018 13.6058 38.8168 12.352 38.5604C11.1268 38.2755 9.88733 37.9335 8.63361 37.5346C7.40838 37.1357 6.28287 36.6228 5.2571 35.996C4.23132 35.3691 3.39076 34.5428 2.7354 33.517C2.10854 32.4912 1.79511 31.1805 1.79511 29.5849C1.79511 27.8752 2.25101 26.3223 3.16281 24.9261C4.1031 23.5014 5.49929 22.3759 7.35139 21.5496C9.23197 20.6948 11.5827 20.2674 14.4036 20.2674C16.2842 20.2674 18.1363 20.4954 19.9599 20.9513C21.7835 21.3787 23.3934 22.034 24.7896 22.9173L22.6525 28.1744C21.2563 27.3766 19.8601 26.7925 18.4639 26.4221C17.0678 26.0231 15.7001 25.8237 14.3609 25.8237C13.0216 25.8237 11.9246 25.9804 11.0698 26.2938C10.215 26.6073 9.60239 27.0204 9.23197 27.5333C8.86156 28.0177 8.67635 28.5876 8.67635 29.2429C8.67635 30.0123 8.98978 30.6391 9.61664 31.1235C10.2435 31.5794 11.0698 31.9498 12.0956 32.2348C13.1214 32.5197 14.2469 32.8047 15.4721 33.0896C16.7258 33.3745 17.9653 33.7022 19.1905 34.0726C20.4443 34.443 21.584 34.9417 22.6098 35.5685C23.6356 36.1954 24.4619 37.0217 25.0887 38.0475C25.7441 39.0733 26.0718 40.3697 26.0718 41.9369C26.0718 43.618 25.6016 45.1567 24.6613 46.5529C23.721 47.9491 22.3106 49.0746 20.43 49.9294C18.5779 50.7842 16.2272 51.2116 13.3778 51.2116ZM39.8752 51.0407C37.9661 51.0407 36.2565 50.6702 34.7463 49.9294C33.2646 49.1886 32.1106 48.0631 31.2843 46.5529C30.458 45.0142 30.0448 43.0624 30.0448 40.6974V27.7043H36.7124V39.7144C36.7124 41.6235 37.1113 43.0339 37.9091 43.9457C38.7354 44.829 39.8894 45.2707 41.3711 45.2707C42.3969 45.2707 43.3087 45.057 44.1065 44.6296C44.9043 44.1737 45.5312 43.4898 45.9871 42.578C46.443 41.6377 46.6709 40.4695 46.6709 39.0733V27.7043H53.3385V50.6987H47.0129V44.3731L48.1669 46.211C47.3975 47.8066 46.2578 49.0176 44.7476 49.8439C43.2659 50.6417 41.6418 51.0407 39.8752 51.0407ZM72.9472 51.0407C70.9242 51.0407 69.1861 50.6132 67.7329 49.7584C66.2797 48.9036 65.1685 47.6072 64.3991 45.869C63.6298 44.1024 63.2451 41.8799 63.2451 39.2015C63.2451 36.4946 63.644 34.2721 64.4419 32.534C65.2682 30.7958 66.4079 29.4994 67.8611 28.6446C69.3143 27.7898 71.0097 27.3623 72.9472 27.3623C75.1128 27.3623 77.0503 27.8467 78.76 28.8155C80.4981 29.7843 81.8658 31.152 82.8631 32.9186C83.8888 34.6852 84.4017 36.7795 84.4017 39.2015C84.4017 41.595 83.8888 43.675 82.8631 45.4416C81.8658 47.2082 80.4981 48.5902 78.76 49.5875C77.0503 50.5563 75.1128 51.0407 72.9472 51.0407ZM59.3557 50.6987V18.9852H66.0233V32.363L65.5959 39.1588L65.7241 45.9973V50.6987H59.3557ZM71.7933 45.5699C72.9045 45.5699 73.8875 45.3134 74.7424 44.8005C75.6257 44.2876 76.3238 43.561 76.8366 42.6208C77.378 41.652 77.6487 40.5122 77.6487 39.2015C77.6487 37.8623 77.378 36.7225 76.8366 35.7823C76.3238 34.842 75.6257 34.1154 74.7424 33.6025C73.8875 33.0896 72.9045 32.8331 71.7933 32.8331C70.682 32.8331 69.6847 33.0896 68.8014 33.6025C67.9181 34.1154 67.22 34.842 66.7071 35.7823C66.1942 36.7225 65.9378 37.8623 65.9378 39.2015C65.9378 40.5122 66.1942 41.652 66.7071 42.6208C67.22 43.561 67.9181 44.2876 68.8014 44.8005C69.6847 45.3134 70.682 45.5699 71.7933 45.5699Z" fill="black"/>
<line x1="91.0351" y1="63.0735" x2="120.241" y2="2.52426" stroke="#0647EE" stroke-width="11.3975"/>
<line x1="124.252" y1="68.4753" x2="87.1443" y2="12.4197" stroke="#0647EE" stroke-width="11.3975"/>
</svg>
